<svg width="1200" height="900" viewBox="0 0 1200 900" fill="none" xmlns="http://www.w3.org/2000/svg">
  <defs>
    <linearGradient id="bg" x1="0" y1="0" x2="1200" y2="900" gradientUnits="userSpaceOnUse">
      <stop stop-color="#041325"/>
      <stop offset="1" stop-color="#1F2B4A"/>
    </linearGradient>
  </defs>

  <rect width="1200" height="900" fill="url(#bg)"/>

  <rect x="95" y="120" width="1010" height="670" rx="30" fill="#0B1728" stroke="#22D3EE" stroke-opacity="0.25"/>

  <path d="M160 675L1020 675" stroke="#1E3A5F" stroke-width="4"/>
  <rect x="210" y="600" width="140" height="75" rx="12" fill="#0F223A" stroke="#334155"/>
  <rect x="390" y="530" width="140" height="145" rx="12" fill="#0F223A" stroke="#334155"/>
  <rect x="570" y="460" width="140" height="215" rx="12" fill="#0F223A" stroke="#334155"/>
  <rect x="750" y="390" width="140" height="285" rx="12" fill="#0F223A" stroke="#334155"/>

  <text x="232" y="645" fill="#94A3B8" font-size="22" font-family="Verdana, sans-serif">confused</text>
  <text x="412" y="645" fill="#94A3B8" font-size="22" font-family="Verdana, sans-serif">curious</text>
  <text x="602" y="645" fill="#94A3B8" font-size="22" font-family="Verdana, sans-serif">capable</text>
  <text x="778" y="645" fill="#67E8F9" font-size="22" font-family="Verdana, sans-serif">confident</text>

  <ellipse cx="360" cy="465" rx="55" ry="62" fill="#334155"/>
  <circle cx="343" cy="450" r="6" fill="#E2E8F0"/>
  <circle cx="378" cy="450" r="6" fill="#E2E8F0"/>
  <path d="M338 488C347 498 369 500 382 486" stroke="#E2E8F0" stroke-width="4" stroke-linecap="round"/>
  <rect x="325" y="528" width="70" height="92" rx="16" fill="#475569"/>

  <ellipse cx="855" cy="345" rx="90" ry="100" fill="#0EA5E9"/>
  <rect x="790" y="428" width="130" height="160" rx="26" fill="#22D3EE"/>
  <rect x="805" y="444" width="100" height="128" rx="18" fill="#E2E8F0"/>
  <circle cx="836" cy="497" r="12" fill="#0F172A"/>
  <circle cx="875" cy="497" r="12" fill="#0F172A"/>
  <rect x="832" y="532" width="48" height="10" rx="5" fill="#0F172A"/>
  <rect x="760" y="475" width="35" height="16" rx="8" fill="#22D3EE"/>

  <path d="M760 355L700 295" stroke="#67E8F9" stroke-width="6" stroke-linecap="round"/>
  <rect x="634" y="235" width="130" height="76" rx="16" fill="#1E293B" stroke="#38BDF8"/>
  <text x="656" y="282" fill="#BAE6FD" font-size="20" font-family="Verdana, sans-serif">YOU GOT THIS</text>

  <circle cx="690" cy="482" r="14" fill="#F59E0B"/>
  <text x="685" y="488" fill="#111827" font-size="14" font-family="Verdana, sans-serif">1</text>
  <circle cx="615" cy="552" r="14" fill="#F59E0B"/>
  <text x="610" y="558" fill="#111827" font-size="14" font-family="Verdana, sans-serif">2</text>
  <circle cx="530" cy="620" r="14" fill="#F59E0B"/>
  <text x="525" y="626" fill="#111827" font-size="14" font-family="Verdana, sans-serif">3</text>

  <text x="160" y="190" fill="#67E8F9" font-size="34" font-family="Verdana, sans-serif">From overwhelmed to "wait, I can do this".</text>
  <text x="160" y="235" fill="#94A3B8" font-size="22" font-family="Verdana, sans-serif">Our coach bot believes in tiny steps and dramatic high-fives.</text>
</svg>
