<svg width="1200" height="700" viewBox="0 0 1200 700" fill="none" xmlns="http://www.w3.org/2000/svg">
  <defs>
    <linearGradient id="bg" x1="0" y1="0" x2="1200" y2="700" gradientUnits="userSpaceOnUse">
      <stop stop-color="#041325"/>
      <stop offset="1" stop-color="#102845"/>
    </linearGradient>
    <linearGradient id="card" x1="0" y1="0" x2="1" y2="1">
      <stop stop-color="#22D3EE" stop-opacity="0.18"/>
      <stop offset="1" stop-color="#6366F1" stop-opacity="0.24"/>
    </linearGradient>
  </defs>

  <rect width="1200" height="700" fill="url(#bg)"/>

  <circle cx="160" cy="130" r="40" fill="#22D3EE" fill-opacity="0.2"/>
  <circle cx="1080" cy="95" r="55" fill="#6366F1" fill-opacity="0.2"/>
  <circle cx="1085" cy="580" r="75" fill="#06B6D4" fill-opacity="0.12"/>

  <rect x="70" y="470" width="1060" height="165" rx="20" fill="#0B1728"/>
  <rect x="70" y="470" width="1060" height="165" rx="20" stroke="#1E3A5F" stroke-width="2"/>

  <rect x="120" y="130" width="300" height="210" rx="22" fill="url(#card)" stroke="#3B82F6" stroke-opacity="0.35"/>
  <text x="152" y="180" fill="#93C5FD" font-size="24" font-family="Verdana, sans-serif">Prompt #17</text>
  <text x="152" y="222" fill="#E2E8F0" font-size="18" font-family="Verdana, sans-serif">"Explain RAG like I'm</text>
  <text x="152" y="252" fill="#E2E8F0" font-size="18" font-family="Verdana, sans-serif">five and caffeinated."</text>

  <rect x="780" y="160" width="300" height="190" rx="22" fill="url(#card)" stroke="#22D3EE" stroke-opacity="0.35"/>
  <text x="812" y="210" fill="#67E8F9" font-size="24" font-family="Verdana, sans-serif">To-Do</text>
  <text x="812" y="248" fill="#E2E8F0" font-size="18" font-family="Verdana, sans-serif">1. Learn embeddings</text>
  <text x="812" y="278" fill="#E2E8F0" font-size="18" font-family="Verdana, sans-serif">2. Rename files better</text>
  <text x="812" y="308" fill="#E2E8F0" font-size="18" font-family="Verdana, sans-serif">3. Same coffee, less panic</text>

  <ellipse cx="600" cy="500" rx="230" ry="95" fill="#0B1F34"/>
  <rect x="505" y="270" width="190" height="205" rx="36" fill="#0EA5E9"/>
  <rect x="518" y="286" width="164" height="175" rx="26" fill="#E2E8F0"/>

  <circle cx="560" cy="355" r="22" fill="#0F172A"/>
  <circle cx="641" cy="355" r="22" fill="#0F172A"/>
  <circle cx="566" cy="360" r="7" fill="#67E8F9"/>
  <circle cx="647" cy="360" r="7" fill="#67E8F9"/>
  <rect x="565" y="402" width="75" height="12" rx="6" fill="#0F172A"/>

  <rect x="540" y="230" width="120" height="52" rx="18" fill="#1E293B"/>
  <circle cx="570" cy="256" r="9" fill="#22D3EE"/>
  <circle cx="602" cy="256" r="9" fill="#60A5FA"/>
  <circle cx="634" cy="256" r="9" fill="#818CF8"/>

  <rect x="432" y="322" width="72" height="20" rx="10" fill="#0EA5E9"/>
  <rect x="700" y="332" width="72" height="20" rx="10" fill="#0EA5E9"/>

  <rect x="745" y="440" width="118" height="60" rx="14" fill="#111827" stroke="#334155"/>
  <rect x="760" y="418" width="88" height="34" rx="12" fill="#0F172A"/>
  <rect x="792" y="432" width="24" height="8" rx="4" fill="#67E8F9"/>
  <rect x="770" y="510" width="68" height="10" rx="5" fill="#334155"/>

  <path d="M362 365C408 330 447 346 477 373" stroke="#22D3EE" stroke-width="6" stroke-linecap="round"/>
  <circle cx="355" cy="370" r="18" fill="#F59E0B"/>
  <ellipse cx="355" cy="376" rx="10" ry="6" fill="#92400E"/>
  <rect x="335" y="388" width="40" height="10" rx="5" fill="#6B7280"/>

  <text x="402" y="566" fill="#94A3B8" font-size="22" font-family="Verdana, sans-serif">Learning AI: 20% tutorials, 80% naming things.</text>
</svg>
